<svg width="135" height="29" viewBox="0 0 135 29" fill="none" xmlns="http://www.w3.org/2000/svg">
<g id="Frame 335">
<g id="Group 263">
<g id="Group 261">
<path id="Vector" d="M49.1867 8.04395H46.3047V20.9558H58.1589C59.9569 20.9558 61.4199 19.4928 61.4199 17.6948V11.305C61.4199 9.507 59.9569 8.04395 58.1589 8.04395H49.1867ZM57.6389 18.0738H49.1867V10.926H57.6389C58.1325 10.926 58.5379 11.3314 58.5379 11.825V17.166C58.5379 17.6595 58.1325 18.065 57.6389 18.065V18.0738Z" fill="white"/>
<path id="Vector_2" d="M44.2734 20.947V8.03516H41.3914V20.947H44.2734Z" fill="white"/>
<path id="Vector_3" d="M77.1333 10.926V8.04395H66.1516H65.2438H63.2695V20.9558H65.2438H66.1516H77.1333V18.0738H66.1516V15.9409H77.1333V13.0589H66.1516V10.926H77.1333Z" fill="white"/>
<g id="Group">
<path id="Vector_4" d="M36.4954 8C36.4954 8.64339 36.4954 10.362 36.4954 10.9261C36.4954 10.9085 36.4954 10.9085 36.4954 10.8908V17.219C36.4954 17.7125 36.09 18.118 35.5964 18.118H28.9334C28.4398 18.118 28.0344 17.7125 28.0344 17.219V8H25.1523V17.739C25.1523 19.5369 26.6154 21 28.4134 21H36.1252C37.9232 21 39.3862 19.5369 39.3862 17.739V8H36.5042H36.4954Z" fill="white"/>
</g>
<path id="Vector_5" d="M14.9186 13.103V15.7382H20.242V16.6372V17.1749C20.242 17.6684 19.8366 18.0738 19.343 18.0738H11.7898C11.2963 18.0738 10.8908 17.6684 10.8908 17.1749V11.825C10.8908 11.3315 11.2963 10.926 11.7898 10.926H22.3224V8.04401H11.261C9.46305 8.04401 8 9.50706 8 11.305V17.6949C8 19.4928 9.46305 20.9559 11.261 20.9559H19.8542C21.6522 20.9559 23.1153 19.4928 23.1153 17.6949V13.103H14.9186Z" fill="white"/>
</g>
<path id="Subtract" fill-rule="evenodd" clip-rule="evenodd" d="M115.208 8.08369C115.236 8.07926 115.266 8.07715 115.294 8.07715H124.729C124.758 8.07715 124.788 8.07926 124.816 8.08369C125.378 8.17183 125.218 8.76827 124.65 8.76827H115.374C114.805 8.76827 114.646 8.17183 115.208 8.08369ZM101.32 8.29174C101.373 8.16194 101.5 8.07715 101.64 8.07715H106.244C106.385 8.07715 106.511 8.16194 106.564 8.29174C106.657 8.51909 106.49 8.76827 106.244 8.76827H101.64C101.394 8.76827 101.227 8.51909 101.32 8.29174ZM80.332 8.42271C80.332 8.23186 80.4867 8.07715 80.6776 8.07715H92.6077C92.6362 8.07715 92.666 8.07927 92.6943 8.08371C93.2557 8.17192 93.0965 8.76827 92.5282 8.76827H80.6776C80.4867 8.76827 80.332 8.61355 80.332 8.42271ZM80.6776 10.0737C80.4867 10.0737 80.332 10.2284 80.332 10.4192C80.332 10.6101 80.4867 10.7647 80.6776 10.7647H94.9433C95.1836 10.7647 95.3671 10.5457 95.2942 10.3168C95.2462 10.1665 95.1027 10.0737 94.945 10.0737H80.6776ZM100.822 10.0737C100.682 10.0737 100.556 10.1585 100.502 10.2883C100.409 10.5156 100.576 10.7647 100.822 10.7647H107.062C107.308 10.7647 107.475 10.5156 107.382 10.2883C107.329 10.1585 107.202 10.0737 107.062 10.0737H100.822ZM112.957 10.0737C112.799 10.0737 112.655 10.1665 112.607 10.3168C112.534 10.5457 112.718 10.7647 112.958 10.7647H127.066C127.306 10.7647 127.489 10.5457 127.416 10.3168C127.368 10.1665 127.225 10.0737 127.067 10.0737H112.957ZM127.57 12.4157C127.57 12.2249 127.415 12.0702 127.224 12.0702H125.033C124.842 12.0702 124.687 12.2249 124.687 12.4157C124.687 12.6065 124.842 12.7612 125.033 12.7612H127.224C127.415 12.7612 127.57 12.6065 127.57 12.4157ZM127.57 14.4122C127.57 14.2214 127.415 14.0667 127.224 14.0667H125.033C124.842 14.0667 124.687 14.2214 124.687 14.4122C124.687 14.603 124.842 14.7577 125.033 14.7577H127.224C127.415 14.7577 127.57 14.603 127.57 14.4122ZM127.57 16.4087C127.57 16.2178 127.415 16.0632 127.224 16.0632H125.033C124.842 16.0632 124.687 16.2178 124.687 16.4087C124.687 16.5995 124.842 16.7542 125.033 16.7542H127.224C127.415 16.7542 127.57 16.5995 127.57 16.4087ZM127.472 18.4879C127.528 18.2639 127.347 18.0596 127.116 18.0596H124.11C124.002 18.0596 123.896 18.0741 123.788 18.0741H116.235C116.128 18.0741 116.021 18.0596 115.914 18.0596H112.908C112.677 18.0596 112.496 18.2639 112.552 18.4879C112.592 18.6485 112.741 18.7507 112.906 18.7507H127.118C127.283 18.7507 127.432 18.6485 127.472 18.4879ZM125.541 20.7143C125.948 20.5476 125.778 20.0561 125.338 20.0561H114.686C114.246 20.0561 114.076 20.5476 114.483 20.7143C114.537 20.7366 114.597 20.7472 114.655 20.7472H125.368C125.427 20.7472 125.487 20.7366 125.541 20.7143ZM93.4185 20.7143C93.3641 20.7366 93.3048 20.7472 93.246 20.7472H80.6776C80.4867 20.7472 80.332 20.5925 80.332 20.4016C80.332 20.2108 80.4867 20.0561 80.6776 20.0561H93.2158C93.6554 20.0561 93.8252 20.5477 93.4185 20.7143ZM99.6822 20.5325C99.629 20.6623 99.5027 20.7472 99.3624 20.7472H96.7337C96.4881 20.7472 96.3209 20.498 96.414 20.2707C96.4671 20.1409 96.5935 20.0561 96.7337 20.0561H99.3624C99.608 20.0561 99.7752 20.3052 99.6822 20.5325ZM111.47 20.2707C111.563 20.498 111.396 20.7472 111.15 20.7472H108.522C108.381 20.7472 108.255 20.6623 108.202 20.5325C108.109 20.3052 108.276 20.0561 108.522 20.0561H111.15C111.291 20.0561 111.417 20.1409 111.47 20.2707ZM110.333 18.7507C110.578 18.7507 110.746 18.5015 110.652 18.2742C110.599 18.1444 110.473 18.0596 110.333 18.0596H97.5514C97.4112 18.0596 97.2848 18.1444 97.2317 18.2742C97.1386 18.5015 97.3057 18.7507 97.5514 18.7507H110.333ZM94.9953 18.7507C95.1608 18.7507 95.3095 18.6485 95.3498 18.488C95.406 18.2639 95.2249 18.0596 94.994 18.0596H91.766C91.7346 18.0632 91.7028 18.065 91.6707 18.0652C91.6682 18.0652 91.6663 18.0672 91.6663 18.0696C91.6663 18.072 91.6643 18.074 91.6619 18.074H83.2212C83.2173 18.074 83.2141 18.0708 83.2141 18.0668C83.2141 18.0629 83.2108 18.0596 83.2069 18.0596H80.6776C80.4867 18.0596 80.332 18.2143 80.332 18.4052C80.332 18.596 80.4867 18.7507 80.6776 18.7507H94.9953ZM80.332 16.4087C80.332 16.5995 80.4867 16.7542 80.6776 16.7542H82.8685C83.0594 16.7542 83.2141 16.5995 83.2141 16.4087C83.2141 16.2178 83.0594 16.0632 82.8685 16.0632H80.6776C80.4867 16.0632 80.332 16.2178 80.332 16.4087ZM80.332 14.4122C80.332 14.603 80.4867 14.7577 80.6776 14.7577H82.8685C83.0594 14.7577 83.2141 14.603 83.2141 14.4122C83.2141 14.2214 83.0594 14.0667 82.8685 14.0667H80.6776C80.4867 14.0667 80.332 14.2214 80.332 14.4122ZM80.332 12.4157C80.332 12.6065 80.4867 12.7612 80.6776 12.7612H82.8685C83.0594 12.7612 83.2141 12.6065 83.2141 12.4157C83.2141 12.2249 83.0594 12.0702 82.8685 12.0702H80.6776C80.4867 12.0702 80.332 12.2249 80.332 12.4157ZM92.9108 12.0702C92.7199 12.0702 92.5653 12.2249 92.5653 12.4157C92.5653 12.6065 92.7199 12.7612 92.9108 12.7612H95.1018C95.2926 12.7612 95.4473 12.6065 95.4473 12.4157C95.4473 12.2249 95.2926 12.0702 95.1018 12.0702H92.9108ZM100.004 12.0702C99.8642 12.0702 99.7378 12.155 99.6847 12.2848C99.5916 12.5121 99.7588 12.7612 100.004 12.7612H102.826C102.96 12.7612 103.083 12.6835 103.139 12.5618C103.246 12.3327 103.079 12.0702 102.826 12.0702H100.004ZM105.058 12.0702C104.805 12.0702 104.638 12.3327 104.745 12.5618C104.802 12.6835 104.924 12.7612 105.058 12.7612H107.88C108.125 12.7612 108.293 12.5121 108.199 12.2848C108.146 12.155 108.02 12.0702 107.88 12.0702H105.058ZM112.8 12.0702C112.609 12.0702 112.454 12.2249 112.454 12.4157C112.454 12.6065 112.609 12.7612 112.8 12.7612H114.991C115.182 12.7612 115.336 12.6065 115.336 12.4157C115.336 12.2249 115.182 12.0702 114.991 12.0702H112.8ZM115.336 14.4122C115.336 14.2214 115.182 14.0667 114.991 14.0667H112.8C112.609 14.0667 112.454 14.2214 112.454 14.4122C112.454 14.603 112.609 14.7577 112.8 14.7577H114.991C115.182 14.7577 115.336 14.603 115.336 14.4122ZM115.336 16.4087C115.336 16.2178 115.182 16.0632 114.991 16.0632H112.8C112.609 16.0632 112.454 16.2178 112.454 16.4087C112.454 16.5995 112.609 16.7542 112.8 16.7542H114.991C115.182 16.7542 115.336 16.5995 115.336 16.4087ZM109.515 16.7542C109.761 16.7542 109.928 16.5051 109.835 16.2777C109.782 16.1479 109.655 16.0632 109.515 16.0632H98.3691C98.2288 16.0632 98.1025 16.1479 98.0493 16.2777C97.9562 16.5051 98.1234 16.7542 98.3691 16.7542H109.515ZM95.1018 16.7542C95.2926 16.7542 95.4473 16.5995 95.4473 16.4087C95.4473 16.2178 95.2926 16.0632 95.1018 16.0632H92.9108C92.7199 16.0632 92.5653 16.2178 92.5653 16.4087C92.5653 16.5995 92.7199 16.7542 92.9108 16.7542H95.1018ZM92.5653 14.4122C92.5653 14.603 92.7199 14.7577 92.9108 14.7577H95.1018C95.2926 14.7577 95.4473 14.603 95.4473 14.4122C95.4473 14.2214 95.2926 14.0667 95.1018 14.0667H92.9108C92.7199 14.0667 92.5653 14.2214 92.5653 14.4122ZM99.1868 14.0667C99.0465 14.0667 98.9202 14.1514 98.867 14.2812C98.7739 14.5086 98.9411 14.7577 99.1868 14.7577H101.895C102.029 14.7577 102.151 14.68 102.208 14.5583C102.315 14.3292 102.147 14.0667 101.895 14.0667H99.1868ZM105.99 14.0667C105.737 14.0667 105.57 14.3292 105.676 14.5583C105.733 14.68 105.855 14.7577 105.99 14.7577H108.697C108.943 14.7577 109.11 14.5086 109.017 14.2812C108.964 14.1514 108.838 14.0667 108.697 14.0667H105.99Z" fill="white"/>
</g>
</g>
</svg>
